<svg xmlns="http://www.w3.org/2000/svg" version="1.1" xmlns:xlink="http://www.w3.org/1999/xlink" xmlns:svgjs="http://svgjs.dev/svgjs" width="110" height="125" viewBox="0 0 2000 1252"><g transform="matrix(1,0,0,1,-1.2121212121212466,-2.01935483870966)"><svg viewBox="0 0 396 248" data-background-color="#000000" preserveAspectRatio="xMidYMid meet" height="1252" width="2000" xmlns="http://www.w3.org/2000/svg" xmlns:xlink="http://www.w3.org/1999/xlink"><g id="tight-bounds" transform="matrix(1,0,0,1,0.2400000000000091,0.4000000000000057)"><svg viewBox="0 0 395.52 247.2" height="247.2" width="395.52"><rect width="395.52" height="247.2" fill="url(#1bf33a97-9cde-456c-a33c-372f3a2d6931)" mask="url(#c113737d-8349-4324-a81a-5f43a59374d4)" data-fill-palette-color="tertiary"></rect><g><svg></svg></g><g><svg viewBox="0 0 395.52 247.2" height="247.2" width="395.52"><g><path d="M55.039 247.2l26.403-45.732h7.584l-22.403 38.804h262.274l-22.403-38.804 7.584 0 26.403 45.732zM197.76 0l26.403 45.732-7.583 0-18.82-32.596-18.82 32.596-7.583 0z" fill="url(#1bf33a97-9cde-456c-a33c-372f3a2d6931)" fill-rule="nonzero" stroke="none" stroke-width="1" stroke-linecap="butt" stroke-linejoin="miter" stroke-miterlimit="10" stroke-dasharray="" stroke-dashoffset="0" font-family="none" font-weight="none" font-size="none" text-anchor="none" style="mix-blend-mode: normal" data-fill-palette-color="tertiary"></path></g><g transform="matrix(1,0,0,1,72.49163498098861,67.97999999999999)" ><svg viewBox="0 0 250.53673003802277 111.24" height="111.24" width="250.53673003802277"><g><svg viewBox="0 0 250.53673003802277 111.24" height="111.24" width="250.53673003802277"><g><svg viewBox="0 0 250.53673003802277 111.24" height="111.24" width="250.53673003802277"><g id="textblocktransform"><svg viewBox="0 0 250.53673003802277 111.24" height="111.24" width="250.53673003802277" id="textblock"><g><svg viewBox="0 0 250.53673003802277 111.24" height="111.24" width="250.53673003802277"><g transform="matrix(1,0,0,1,0,0)"><svg width="250.53673003802277" viewBox="-1.85 -38.2 88.83999999999999 39.45" height="111.24" data-palette-color="url(#76c92dae-15c0-404c-8b5f-0a63b820664c)"><g class="wordmark-text-0" data-fill-palette-color="primary" id="text-0"></g></svg></g></svg></g></svg></g></svg></g></svg></g></svg></g></svg></g><defs></defs><mask id="691277ef-ea3d-429f-8466-fceb3a8456e7"><g id="SvgjsG1721"><svg viewBox="0 0 395.52 247.2" height="247.2" width="395.52"><g><svg></svg></g><g><svg viewBox="0 0 395.52 247.2" height="247.2" width="395.52"><g><path d="M55.039 247.2l26.403-45.732h7.584l-22.403 38.804h262.274l-22.403-38.804 7.584 0 26.403 45.732zM197.76 0l26.403 45.732-7.583 0-18.82-32.596-18.82 32.596-7.583 0z" fill="black" fill-rule="nonzero" stroke="none" stroke-width="1" stroke-linecap="butt" stroke-linejoin="miter" stroke-miterlimit="10" stroke-dasharray="" stroke-dashoffset="0" font-family="none" font-weight="none" font-size="none" text-anchor="none" style="mix-blend-mode: normal"></path></g><g transform="matrix(1,0,0,1,72.49163498098861,67.97999999999999)"><svg viewBox="0 0 250.53673003802277 111.24" height="111.24" width="250.53673003802277"><g><svg viewBox="0 0 250.53673003802277 111.24" height="111.24" width="250.53673003802277"><g><svg viewBox="0 0 250.53673003802277 111.24" height="111.24" width="250.53673003802277"><g id="SvgjsG1720"><svg viewBox="0 0 250.53673003802277 111.24" height="111.24" width="250.53673003802277" id="SvgjsSvg1719"><g><svg viewBox="0 0 250.53673003802277 111.24" height="111.24" width="250.53673003802277"><g transform="matrix(1,0,0,1,0,0)"><svg width="250.53673003802277" viewBox="-1.85 -38.2 88.83999999999999 39.45" height="111.24" data-palette-color="url(#76c92dae-15c0-404c-8b5f-0a63b820664c)"><g class="wordmark-text-0" data-fill-palette-color="primary" id="SvgjsG1718"><path d="M-1.7-3.45L-1.7-3.45Q-0.9-5.45 0.58-8.1 2.05-10.75 3.15-12.4L3.15-12.4 4.25-14Q4.95-15 5.65-15L5.65-15Q6.2-15 6.2-14.45L6.2-14.45 6.05-13.95Q4.25-9.4 4.25-6.1L4.25-6.1Q4.25-3.45 5.43-1.78 6.6-0.1 9.1-0.1L9.1-0.1Q12.85-0.1 15.15-3.38 17.45-6.65 17.45-10.45L17.45-10.45Q17.45-13.7 15.23-19.73 13-25.75 13-27.9L13-27.9Q13-32.55 16.98-35.38 20.95-38.2 25.7-38.2L25.7-38.2Q26.55-38.2 27.38-38.1 28.2-38 29.2-37.77 30.2-37.55 30.8-37.05 31.4-36.55 31.4-35.8L31.4-35.8Q31.4-34.8 30-32.4 28.6-30 27.65-28.75L27.65-28.75Q27.3-28.5 27.05-28.5L27.05-28.5Q26.7-28.5 26.7-29.1L26.7-29.1Q26.7-30.5 27-32.9L27-32.9Q27-36.8 24-36.8L24-36.8Q21.45-36.8 19.68-35.05 17.9-33.3 17.9-30.8L17.9-30.8Q17.9-27.5 20.23-21.6 22.55-15.7 22.55-12.5L22.55-12.5Q22.55-6.5 17.82-2.63 13.1 1.25 7.2 1.25L7.2 1.25Q6.2 1.25 4.8 1.05 3.4 0.85 1.85 0.43 0.3 0-0.78-0.83-1.85-1.65-1.85-2.7L-1.85-2.7Q-1.85-3.1-1.7-3.45ZM36.9-3.15L36.9-3.15Q32.75 0.65 31.2 0.65L31.2 0.65Q30.5 0.65 30.5-0.15L30.5-0.15Q30.5-1.15 31.37-3.2 32.25-5.25 33.15-6.8L33.15-6.8 34.05-8.35Q34.25-8.7 34.25-8.8 34.25-8.9 34.15-8.9L34.15-8.9Q33.95-8.9 33.4-8.35L33.4-8.35Q31.9-6.7 29.97-4.83 28.05-2.95 26.85-1.9L26.85-1.9 25.7-0.9Q23.75 0.6 22.7 0.6L22.7 0.6Q21.6 0.6 21.6-1.1L21.6-1.1Q21.6-1.95 22.07-3.7 22.55-5.45 22.8-6.05L22.8-6.05Q23.95-8.85 25.67-11.5 27.4-14.15 29.75-16.57 32.1-19 35.22-20.5 38.35-22 41.7-22L41.7-22Q44.5-22 44.5-21.15L44.5-21.15Q44.5-20.65 43.25-20.65L43.25-20.65Q38.65-20.65 34.62-16.73 30.6-12.8 28.1-7.7L28.1-7.7Q27.4-6.3 27.4-5.35L27.4-5.35Q27.4-4.8 27.75-4.8L27.75-4.8Q28.35-4.8 29.3-5.65L29.3-5.65Q29.9-6.2 30.92-7.1 31.95-8 34.25-10.55 36.55-13.1 37.9-15.3L37.9-15.3Q38.1-15.7 38.52-16.25 38.95-16.8 40.15-17.73 41.35-18.65 42.55-18.65L42.55-18.65Q43.2-18.65 43.2-18.3L43.2-18.3Q43.2-18.2 43.05-17.95L43.05-17.95Q42.85-17.55 41.92-15.95 41-14.35 40.2-12.93 39.4-11.5 38.5-9.83 37.6-8.15 37.07-6.95 36.55-5.75 36.55-5.35L36.55-5.35Q36.55-5.05 36.8-5.05L36.8-5.05Q37.55-5.05 40.45-7.95L40.45-7.95Q42.65-10.25 45.6-13.6L45.6-13.6Q45.75-13.75 45.85-13.75 45.95-13.75 45.95-13.55L45.95-13.55Q45.95-12.6 45.2-11.7L45.2-11.7Q40.3-6.25 36.9-3.15ZM69.05-7.55L69.05-7.55Q71.14-9.65 74.59-13.6L74.59-13.6Q74.75-13.75 74.84-13.75 74.94-13.75 74.94-13.55L74.94-13.55Q74.94-12.6 74.19-11.7L74.19-11.7Q70.5-7.6 67.64-4.85L67.64-4.85Q61.75 0.65 59.89 0.65L59.89 0.65Q59.09 0.65 59.09-0.3 59.09-1.25 60.12-3.45 61.14-5.65 62.17-7.45 63.2-9.25 64.77-11.85 66.34-14.45 66.44-14.65L66.44-14.65Q67.34-16.1 67.34-16.5L67.34-16.5Q67.34-16.75 67.09-16.75L67.09-16.75 66.39-16.5Q64.09-14.85 60.89-11.38 57.7-7.9 55.64-5.3L55.64-5.3 53.59-2.65Q51.3 0.65 49.09 0.65L49.09 0.65Q48.45 0.65 48.45 0.25L48.45 0.25Q48.45-0.2 49.39-2.13 50.34-4.05 51.3-5.75L51.3-5.75 52.24-7.45Q52.59-8.15 53.97-10.48 55.34-12.8 56.27-14.48 57.2-16.15 57.2-16.55L57.2-16.55Q57.2-16.8 57-16.8L57-16.8 56.3-16.5Q53.95-14.85 50.74-11.38 47.55-7.9 45.55-5.3L45.55-5.3 43.49-2.65Q41.14 0.6 38.99 0.6L38.99 0.6Q38.34 0.6 38.34 0.25L38.34 0.25Q38.34-0.2 39.3-2.13 40.24-4.05 41.2-5.75L41.2-5.75 42.14-7.45 46.99-16.05Q48.2-18.3 49.89-20.08 51.59-21.85 53.45-21.85L53.45-21.85Q53.84-21.85 53.84-21.5L53.84-21.5Q53.84-21.2 53.27-20.23 52.7-19.25 51.62-17.53 50.55-15.8 49.8-14.35L49.8-14.35Q49.34-13.5 48.72-12.43 48.09-11.35 47.7-10.63 47.3-9.9 47.14-9.6 46.99-9.3 46.99-9.15L46.99-9.15Q46.99-9.05 47.09-9.05L47.09-9.05Q47.24-9.05 47.59-9.4L47.59-9.4Q48.55-10.5 50.07-12.15 51.59-13.8 55.24-17.13 58.89-20.45 61.25-21.6L61.25-21.6Q61.75-21.85 62.25-21.85L62.25-21.85Q62.95-21.85 62.95-21.15L62.95-21.15Q62.95-19.85 60-14.4L60-14.4Q59.75-13.95 58.97-12.65 58.2-11.35 57.67-10.4 57.14-9.45 57.14-9.2L57.14-9.2Q57.14-9.05 57.25-9.05L57.25-9.05Q57.39-9.05 57.75-9.4L57.75-9.4Q58.7-10.5 60.22-12.15 61.75-13.8 65.37-17.13 69-20.45 71.34-21.6L71.34-21.6Q71.94-21.85 72.39-21.85L72.39-21.85Q73.15-21.85 73.15-21.15L73.15-21.15Q73.15-20.95 72.94-20.28 72.75-19.6 71.8-17.53 70.84-15.45 69.3-12.95L69.3-12.95Q65.5-7.1 65.5-5.6L65.5-5.6Q65.5-5.15 65.8-5.15L65.8-5.15Q66.64-5.15 69.05-7.55ZM76.74-4.85L76.74-4.85Q70.89 0.65 69.24 0.65L69.24 0.65Q68.39 0.65 68.39-0.5 68.39-1.65 69.29-3.85 70.19-6.05 71.09-7.7L71.09-7.7 71.99-9.3Q75.79-15.95 77.74-18.85L77.74-18.85Q78.59-20.1 79.92-20.98 81.24-21.85 82.39-21.85L82.39-21.85Q82.79-21.85 82.79-21.5L82.79-21.5Q82.79-21.25 82.44-20.55L82.44-20.55Q81.84-19.45 79.49-15.3 77.14-11.15 76.69-10.3L76.69-10.3Q74.64-6.7 74.64-5.5L74.64-5.5Q74.64-5.05 74.94-5.05L74.94-5.05Q75.44-5.05 78.14-7.55L78.14-7.55Q80.24-9.65 83.69-13.6L83.69-13.6Q83.84-13.75 83.94-13.75 84.04-13.75 84.04-13.55L84.04-13.55Q84.04-12.6 83.29-11.7L83.29-11.7Q79.59-7.6 76.74-4.85ZM83.39-24.7L83.39-24.7Q82.14-24.7 82.14-26.2L82.14-26.2Q82.14-27.6 83.19-29.03 84.24-30.45 85.49-30.45L85.49-30.45Q86.99-30.45 86.99-28.75L86.99-28.75Q86.99-27.35 85.84-26.03 84.69-24.7 83.39-24.7Z" fill="white"></path></g></svg></g></svg></g></svg></g></svg></g></svg></g></svg></g></svg></g><defs><mask></mask></defs></svg><rect width="395.52" height="247.2" fill="black" stroke="none" visibility="hidden"></rect></g></mask><linearGradient x1="0" x2="1" y1="0.548" y2="0.55" id="76c92dae-15c0-404c-8b5f-0a63b820664c"><stop stop-color="#ff6cab" offset="0"></stop><stop stop-color="#7366ff" offset="1"></stop></linearGradient><rect width="395.52" height="247.2" fill="url(#76c92dae-15c0-404c-8b5f-0a63b820664c)" mask="url(#691277ef-ea3d-429f-8466-fceb3a8456e7)" data-fill-palette-color="primary"></rect><mask id="c113737d-8349-4324-a81a-5f43a59374d4"><g id="SvgjsG1747"><svg viewBox="0 0 395.52 247.2" height="247.2" width="395.52"><g><svg></svg></g><g><svg viewBox="0 0 395.52 247.2" height="247.2" width="395.52"><g><path d="M55.039 247.2l26.403-45.732h7.584l-22.403 38.804h262.274l-22.403-38.804 7.584 0 26.403 45.732zM197.76 0l26.403 45.732-7.583 0-18.82-32.596-18.82 32.596-7.583 0z" fill="white" fill-rule="nonzero" stroke="none" stroke-width="1" stroke-linecap="butt" stroke-linejoin="miter" stroke-miterlimit="10" stroke-dasharray="" stroke-dashoffset="0" font-family="none" font-weight="none" font-size="none" text-anchor="none" style="mix-blend-mode: normal"></path></g><g transform="matrix(1,0,0,1,72.49163498098861,67.97999999999999)"><svg viewBox="0 0 250.53673003802277 111.24" height="111.24" width="250.53673003802277"><g><svg viewBox="0 0 250.53673003802277 111.24" height="111.24" width="250.53673003802277"><g><svg viewBox="0 0 250.53673003802277 111.24" height="111.24" width="250.53673003802277"><g id="SvgjsG1746"><svg viewBox="0 0 250.53673003802277 111.24" height="111.24" width="250.53673003802277" id="SvgjsSvg1745"><g><svg viewBox="0 0 250.53673003802277 111.24" height="111.24" width="250.53673003802277"><g transform="matrix(1,0,0,1,0,0)"><svg width="250.53673003802277" viewBox="-1.85 -38.2 88.83999999999999 39.45" height="111.24" data-palette-color="url(#76c92dae-15c0-404c-8b5f-0a63b820664c)"><g class="wordmark-text-0" data-fill-palette-color="primary" id="SvgjsG1744"></g></svg></g></svg></g></svg></g></svg></g></svg></g></svg></g></svg></g><defs><mask></mask></defs><mask><g id="SvgjsG1743"><svg viewBox="0 0 395.52 247.2" height="247.2" width="395.52"><g><svg></svg></g><g><svg viewBox="0 0 395.52 247.2" height="247.2" width="395.52"><g><path d="M55.039 247.2l26.403-45.732h7.584l-22.403 38.804h262.274l-22.403-38.804 7.584 0 26.403 45.732zM197.76 0l26.403 45.732-7.583 0-18.82-32.596-18.82 32.596-7.583 0z" fill="black" fill-rule="nonzero" stroke="none" stroke-width="1" stroke-linecap="butt" stroke-linejoin="miter" stroke-miterlimit="10" stroke-dasharray="" stroke-dashoffset="0" font-family="none" font-weight="none" font-size="none" text-anchor="none" style="mix-blend-mode: normal"></path></g><g transform="matrix(1,0,0,1,72.49163498098861,67.97999999999999)"><svg viewBox="0 0 250.53673003802277 111.24" height="111.24" width="250.53673003802277"><g><svg viewBox="0 0 250.53673003802277 111.24" height="111.24" width="250.53673003802277"><g><svg viewBox="0 0 250.53673003802277 111.24" height="111.24" width="250.53673003802277"><g id="SvgjsG1742"><svg viewBox="0 0 250.53673003802277 111.24" height="111.24" width="250.53673003802277" id="SvgjsSvg1741"><g><svg viewBox="0 0 250.53673003802277 111.24" height="111.24" width="250.53673003802277"><g transform="matrix(1,0,0,1,0,0)"><svg width="250.53673003802277" viewBox="-1.85 -38.2 88.83999999999999 39.45" height="111.24" data-palette-color="url(#76c92dae-15c0-404c-8b5f-0a63b820664c)"><g class="wordmark-text-0" data-fill-palette-color="primary" id="SvgjsG1740"><path d="M-1.7-3.45L-1.7-3.45Q-0.9-5.45 0.58-8.1 2.05-10.75 3.15-12.4L3.15-12.4 4.25-14Q4.95-15 5.65-15L5.65-15Q6.2-15 6.2-14.45L6.2-14.45 6.05-13.95Q4.25-9.4 4.25-6.1L4.25-6.1Q4.25-3.45 5.43-1.78 6.6-0.1 9.1-0.1L9.1-0.1Q12.85-0.1 15.15-3.38 17.45-6.65 17.45-10.45L17.45-10.45Q17.45-13.7 15.23-19.73 13-25.75 13-27.9L13-27.9Q13-32.55 16.98-35.38 20.95-38.2 25.7-38.2L25.7-38.2Q26.55-38.2 27.38-38.1 28.2-38 29.2-37.77 30.2-37.55 30.8-37.05 31.4-36.55 31.4-35.8L31.4-35.8Q31.4-34.8 30-32.4 28.6-30 27.65-28.75L27.65-28.75Q27.3-28.5 27.05-28.5L27.05-28.5Q26.7-28.5 26.7-29.1L26.7-29.1Q26.7-30.5 27-32.9L27-32.9Q27-36.8 24-36.8L24-36.8Q21.45-36.8 19.68-35.05 17.9-33.3 17.9-30.8L17.9-30.8Q17.9-27.5 20.23-21.6 22.55-15.7 22.55-12.5L22.55-12.5Q22.55-6.5 17.82-2.63 13.1 1.25 7.2 1.25L7.2 1.25Q6.2 1.25 4.8 1.05 3.4 0.85 1.85 0.43 0.3 0-0.78-0.83-1.85-1.65-1.85-2.7L-1.85-2.7Q-1.85-3.1-1.7-3.45ZM36.9-3.15L36.9-3.15Q32.75 0.65 31.2 0.65L31.2 0.65Q30.5 0.65 30.5-0.15L30.5-0.15Q30.5-1.15 31.37-3.2 32.25-5.25 33.15-6.8L33.15-6.8 34.05-8.35Q34.25-8.7 34.25-8.8 34.25-8.9 34.15-8.9L34.15-8.9Q33.95-8.9 33.4-8.35L33.4-8.35Q31.9-6.7 29.97-4.83 28.05-2.95 26.85-1.9L26.85-1.9 25.7-0.9Q23.75 0.6 22.7 0.6L22.7 0.6Q21.6 0.6 21.6-1.1L21.6-1.1Q21.6-1.95 22.07-3.7 22.55-5.45 22.8-6.05L22.8-6.05Q23.95-8.85 25.67-11.5 27.4-14.15 29.75-16.57 32.1-19 35.22-20.5 38.35-22 41.7-22L41.7-22Q44.5-22 44.5-21.15L44.5-21.15Q44.5-20.65 43.25-20.65L43.25-20.65Q38.65-20.65 34.62-16.73 30.6-12.8 28.1-7.7L28.1-7.7Q27.4-6.3 27.4-5.35L27.4-5.35Q27.4-4.8 27.75-4.8L27.75-4.8Q28.35-4.8 29.3-5.65L29.3-5.65Q29.9-6.2 30.92-7.1 31.95-8 34.25-10.55 36.55-13.1 37.9-15.3L37.9-15.3Q38.1-15.7 38.52-16.25 38.95-16.8 40.15-17.73 41.35-18.65 42.55-18.65L42.55-18.65Q43.2-18.65 43.2-18.3L43.2-18.3Q43.2-18.2 43.05-17.95L43.05-17.95Q42.85-17.55 41.92-15.95 41-14.35 40.2-12.93 39.4-11.5 38.5-9.83 37.6-8.15 37.07-6.95 36.55-5.75 36.55-5.35L36.55-5.35Q36.55-5.05 36.8-5.05L36.8-5.05Q37.55-5.05 40.45-7.95L40.45-7.95Q42.65-10.25 45.6-13.6L45.6-13.6Q45.75-13.75 45.85-13.75 45.95-13.75 45.95-13.55L45.95-13.55Q45.95-12.6 45.2-11.7L45.2-11.7Q40.3-6.25 36.9-3.15ZM69.05-7.55L69.05-7.55Q71.14-9.65 74.59-13.6L74.59-13.6Q74.75-13.75 74.84-13.75 74.94-13.75 74.94-13.55L74.94-13.55Q74.94-12.6 74.19-11.7L74.19-11.7Q70.5-7.6 67.64-4.85L67.64-4.85Q61.75 0.65 59.89 0.65L59.89 0.65Q59.09 0.65 59.09-0.3 59.09-1.25 60.12-3.45 61.14-5.65 62.17-7.45 63.2-9.25 64.77-11.85 66.34-14.45 66.44-14.65L66.44-14.65Q67.34-16.1 67.34-16.5L67.34-16.5Q67.34-16.75 67.09-16.75L67.09-16.75 66.39-16.5Q64.09-14.85 60.89-11.38 57.7-7.9 55.64-5.3L55.64-5.3 53.59-2.65Q51.3 0.65 49.09 0.65L49.09 0.65Q48.45 0.65 48.45 0.25L48.45 0.25Q48.45-0.2 49.39-2.13 50.34-4.05 51.3-5.75L51.3-5.75 52.24-7.45Q52.59-8.15 53.97-10.48 55.34-12.8 56.27-14.48 57.2-16.15 57.2-16.55L57.2-16.55Q57.2-16.8 57-16.8L57-16.8 56.3-16.5Q53.95-14.85 50.74-11.38 47.55-7.9 45.55-5.3L45.55-5.3 43.49-2.65Q41.14 0.6 38.99 0.6L38.99 0.6Q38.34 0.6 38.34 0.25L38.34 0.25Q38.34-0.2 39.3-2.13 40.24-4.05 41.2-5.75L41.2-5.75 42.14-7.45 46.99-16.05Q48.2-18.3 49.89-20.08 51.59-21.85 53.45-21.85L53.45-21.85Q53.84-21.85 53.84-21.5L53.84-21.5Q53.84-21.2 53.27-20.23 52.7-19.25 51.62-17.53 50.55-15.8 49.8-14.35L49.8-14.35Q49.34-13.5 48.72-12.43 48.09-11.35 47.7-10.63 47.3-9.9 47.14-9.6 46.99-9.3 46.99-9.15L46.99-9.15Q46.99-9.05 47.09-9.05L47.09-9.05Q47.24-9.05 47.59-9.4L47.59-9.4Q48.55-10.5 50.07-12.15 51.59-13.8 55.24-17.13 58.89-20.45 61.25-21.6L61.25-21.6Q61.75-21.85 62.25-21.85L62.25-21.85Q62.95-21.85 62.95-21.15L62.95-21.15Q62.95-19.85 60-14.4L60-14.4Q59.75-13.95 58.97-12.65 58.2-11.35 57.67-10.4 57.14-9.45 57.14-9.2L57.14-9.2Q57.14-9.05 57.25-9.05L57.25-9.05Q57.39-9.05 57.75-9.4L57.75-9.4Q58.7-10.5 60.22-12.15 61.75-13.8 65.37-17.13 69-20.45 71.34-21.6L71.34-21.6Q71.94-21.85 72.39-21.85L72.39-21.85Q73.15-21.85 73.15-21.15L73.15-21.15Q73.15-20.95 72.94-20.28 72.75-19.6 71.8-17.53 70.84-15.45 69.3-12.95L69.3-12.95Q65.5-7.1 65.5-5.6L65.5-5.6Q65.5-5.15 65.8-5.15L65.8-5.15Q66.64-5.15 69.05-7.55ZM76.74-4.85L76.74-4.85Q70.89 0.65 69.24 0.65L69.24 0.65Q68.39 0.65 68.39-0.5 68.39-1.65 69.29-3.85 70.19-6.05 71.09-7.7L71.09-7.7 71.99-9.3Q75.79-15.95 77.74-18.85L77.74-18.85Q78.59-20.1 79.92-20.98 81.24-21.85 82.39-21.85L82.39-21.85Q82.79-21.85 82.79-21.5L82.79-21.5Q82.79-21.25 82.44-20.55L82.44-20.55Q81.84-19.45 79.49-15.3 77.14-11.15 76.69-10.3L76.69-10.3Q74.64-6.7 74.64-5.5L74.64-5.5Q74.64-5.05 74.94-5.05L74.94-5.05Q75.44-5.05 78.14-7.55L78.14-7.55Q80.24-9.65 83.69-13.6L83.69-13.6Q83.84-13.75 83.94-13.75 84.04-13.75 84.04-13.55L84.04-13.55Q84.04-12.6 83.29-11.7L83.29-11.7Q79.59-7.6 76.74-4.85ZM83.39-24.7L83.39-24.7Q82.14-24.7 82.14-26.2L82.14-26.2Q82.14-27.6 83.19-29.03 84.24-30.45 85.49-30.45L85.49-30.45Q86.99-30.45 86.99-28.75L86.99-28.75Q86.99-27.35 85.84-26.03 84.69-24.7 83.39-24.7Z" fill="black"></path></g></svg></g></svg></g></svg></g></svg></g></svg></g></svg></g></svg></g><defs><mask></mask></defs></svg><rect width="395.52" height="247.2" fill="black" stroke="none" visibility="hidden"></rect></g></mask></svg><rect width="395.52" height="247.2" fill="black" stroke="none" visibility="hidden"></rect></g></mask><linearGradient x1="0" x2="1" y1="0.548" y2="0.55" id="1bf33a97-9cde-456c-a33c-372f3a2d6931"><stop stop-color="#ff6cab" offset="0"></stop><stop stop-color="#7366ff" offset="1"></stop></linearGradient></svg><rect width="395.52" height="247.2" fill="none" stroke="none" visibility="hidden"></rect></g></svg></g></svg>